SplineFontDB: 3.2
FontName: RiverAlethiWomensScript
FullName: River Alethi Womens Script
FamilyName: River Alethi
Weight: Regular
Copyright: Copyright (c) 2022, River
UComments: "2022-3-5: Created with FontForge (http://fontforge.org)"
FontLog: "This is a digital font based on the Alethi women's script from the Stormlight Archive.+AAoACgAA-Contributors: Brandon Sanderson wrote the book series (the Stormlight Archive) that the Alethi script is from, Isaac Stewart made the script and the number glyphs, and I (River) designed a digital font from it and added some characters."
Version: 001.000
ItalicAngle: 0
UnderlinePosition: -120
UnderlineWidth: 60
Ascent: 600
Descent: 600
InvalidEm: 0
LayerCount: 2
Layer: 0 0 "Back" 1
Layer: 1 0 "Fore" 0
XUID: [1021 788 1646968218 12420331]
StyleMap: 0x0000
FSType: 0
OS2Version: 0
OS2_WeightWidthSlopeOnly: 0
OS2_UseTypoMetrics: 1
CreationTime: 1646490116
ModificationTime: 1649017325
PfmFamily: 65
TTFWeight: 400
TTFWidth: 5
LineGap: 108
VLineGap: 108
OS2TypoAscent: 0
OS2TypoAOffset: 1
OS2TypoDescent: 0
OS2TypoDOffset: 1
OS2TypoLinegap: 108
OS2WinAscent: 0
OS2WinAOffset: 1
OS2WinDescent: 0
OS2WinDOffset: 1
HheadAscent: 0
HheadAOffset: 1
HheadDescent: 0
HheadDOffset: 1
OS2Vendor: 'PfEd'
Lookup: 4 0 0 "C_H" { "C_H-1"  } ['liga' ('DFLT' <'dflt' > 'latn' <'dflt' > ) ]
Lookup: 4 0 0 "c_h" { "c_h-1"  } ['liga' ('DFLT' <'dflt' > 'latn' <'dflt' > ) ]
Lookup: 4 0 0 "S_H" { "S_H-1"  } ['liga' ('DFLT' <'dflt' > 'latn' <'dflt' > ) ]
Lookup: 4 0 0 "s_h" { "s_h-1"  } ['liga' ('DFLT' <'dflt' > 'latn' <'dflt' > ) ]
Lookup: 4 0 0 "T_H" { "T_H-1"  } ['liga' ('DFLT' <'dflt' > 'latn' <'dflt' > ) ]
Lookup: 4 0 0 "t_h" { "t_h ligature-1"  } ['liga' ('DFLT' <'dflt' > 'latn' <'dflt' > ) ]
MarkAttachClasses: 1
DEI: 91125
Encoding: ISO8859-1
UnicodeInterp: none
NameList: AGL For New Fonts
DisplaySize: -48
AntiAlias: 1
FitToEm: 0
WinInfo: 0 38 14
BeginPrivate: 0
EndPrivate
Grid
-1200 -240 m 0
 2400 -240 l 1024
-1200 240 m 0
 2400 240 l 1024
479.25 1200 m 0

StartChar: a
Encoding: 97 97 0
Width: 120
Flags: W
HStem: -20 40<0 40 80 120> 380 20G<40 80> 380 20G<40 80>
VStem: 40 40<-400 -20 20 400>
LayerCount: 2
Fore
SplineSet
0 20 m 29xd0
 40 20 l 29
 40 400 l 29
 80 400 l 29
 80 20 l 29
 120 20 l 29
 120 -20 l 29
 80 -20 l 29
 80 -400 l 29
 40 -400 l 29
 40 -20 l 29
 0 -20 l 29
 0 20 l 29xd0
EndSplineSet
Validated: 1
EndChar

StartChar: e
Encoding: 101 101 1
Width: 120
Flags: W
HStem: -20 40<0 40 80 120> 580 20G<40 80>
VStem: 40 40<-600 -20 20 600>
LayerCount: 2
Fore
SplineSet
0 20 m 25
 40 20 l 25
 40 600 l 25
 80 600 l 25
 80 20 l 25
 120 20 l 25
 120 -20 l 25
 80 -20 l 25
 80 -600 l 25
 40 -600 l 25
 40 -20 l 25
 0 -20 l 25
 0 20 l 25
EndSplineSet
Validated: 1
EndChar

StartChar: o
Encoding: 111 111 2
Width: 120
Flags: W
HStem: -200 21G<40 80> -20 40<0 40 80 120> 180 20G<40 80> 180 20G<40 80>
VStem: 40 40<-200 -20 20 200>
LayerCount: 2
Fore
SplineSet
120 -20 m 25xe8
 80 -20 l 25
 80 -200 l 25
 40 -200 l 25
 40 -20 l 25
 0 -20 l 25
 0 20 l 25
 40 20 l 25
 40 200 l 25
 80 200 l 25
 80 20 l 25
 120 20 l 25
 120 -20 l 25xe8
EndSplineSet
Validated: 1
EndChar

StartChar: u
Encoding: 117 117 3
Width: 280
Flags: W
HStem: -20 40<0 40 80 120 160 200 240 280> 380 20G<40 80> 380 20G<40 80>
VStem: 40 40<-400 -20 20 400> 120 40<-100 -20 20 100> 200 40<-100 -20 20 100>
CounterMasks: 1 1c
LayerCount: 2
Fore
SplineSet
0 20 m 25xdc
 40 20 l 25
 40 400 l 25
 80 400 l 25
 80 20 l 25
 120 20 l 25
 120 100 l 25
 160 100 l 25
 160 20 l 25
 200 20 l 25
 200 100 l 25
 240 100 l 25
 240 20 l 25
 280 20 l 25
 280 -20 l 25
 240 -20 l 25
 240 -100 l 25
 200 -100 l 25
 200 -20 l 25
 160 -20 l 25
 160 -100 l 25
 120 -100 l 25
 120 -20 l 25
 80 -20 l 25
 80 -400 l 25
 40 -400 l 25
 40 -20 l 25
 0 -20 l 25
 0 20 l 25xdc
EndSplineSet
Validated: 1
EndChar

StartChar: w
Encoding: 119 119 4
Width: 280
Flags: W
HStem: -20 40<0 40 80 120 160 200 240 280> 380 20G<40 80> 380 20G<40 80>
VStem: 40 40<-400 -20 20 400> 120 40<-100 -20 20 100> 200 40<-100 -20 20 100>
CounterMasks: 1 1c
LayerCount: 2
Fore
SplineSet
0 20 m 25xdc
 40 20 l 25
 40 400 l 25
 80 400 l 25
 80 20 l 25
 120 20 l 25
 120 100 l 25
 160 100 l 25
 160 20 l 25
 200 20 l 25
 200 100 l 25
 240 100 l 25
 240 20 l 25
 280 20 l 25
 280 -20 l 25
 240 -20 l 25
 240 -100 l 25
 200 -100 l 25
 200 -20 l 25
 160 -20 l 25
 160 -100 l 25
 120 -100 l 25
 120 -20 l 25
 80 -20 l 25
 80 -400 l 25
 40 -400 l 25
 40 -20 l 25
 0 -20 l 25
 0 20 l 25xdc
EndSplineSet
Validated: 1
EndChar

StartChar: i
Encoding: 105 105 5
Width: 200
Flags: W
HStem: -201 21G<40 80> -20 40<0 40 80 120 160 200> 180 20G<40 80> 180 20G<40 80>
VStem: 40 40<-200 -20 20 200> 120 40<-100 -20 20 100>
LayerCount: 2
Fore
SplineSet
0 -20 m 25xec
 0 20 l 25
 40 20 l 25
 40 200 l 25
 80 200 l 25
 80 20 l 25
 120 20 l 25
 120 100 l 25
 160 100 l 25
 160 20 l 25
 200 20 l 25
 200 -20 l 25
 160 -20 l 25
 160 -100 l 25
 120 -100 l 25
 120 -20 l 25
 80 -20 l 25
 80 -200 l 25
 40 -201 l 25
 40 -20 l 25
 0 -20 l 25xec
EndSplineSet
Validated: 1
EndChar

StartChar: s
Encoding: 115 115 6
Width: 240
Flags: W
HStem: -20 40<0 40 80 160 200 240>
VStem: 40 40<-600 -559.4 -400 -20 20 400 559.4 600>
LayerCount: 2
Fore
SplineSet
160 -20 m 29
 80 -20 l 29
 80 -400 l 29
 160 -20 l 29
80 20 m 29
 160 20 l 29
 80 400 l 29
 80 20 l 29
40 -20 m 29
 0 -20 l 29
 0 20 l 29
 40 20 l 29
 40 600 l 29
 80 600 l 29
 200 20 l 29
 240 20 l 29
 240 -20 l 29
 200 -20 l 29
 80 -600 l 29
 40 -600 l 29
 40 -20 l 29
EndSplineSet
Validated: 1
EndChar

StartChar: S
Encoding: 83 83 7
Width: 240
Flags: W
HStem: -20 40<0 40 200 240> 580 20G<40 84.1379>
VStem: 40 40<-600 -559.4 559.4 600>
LayerCount: 2
Fore
SplineSet
40 -20 m 25
 0 -20 l 25
 0 20 l 25
 40 20 l 25
 40 600 l 25
 80 600 l 25
 200 20 l 25
 240 20 l 25
 240 -20 l 25
 200 -20 l 25
 80 -600 l 25
 40 -600 l 25
 40 -20 l 25
EndSplineSet
Validated: 1
EndChar

StartChar: Z
Encoding: 90 90 8
Width: 240
Flags: W
HStem: -20 40<0 40 200 240> 380 20G<40 86.3158> 380 20G<40 86.3158>
VStem: 40 40<-400 -373.4 373.4 400>
LayerCount: 2
Fore
SplineSet
40 -20 m 25xd0
 0 -20 l 25
 0 20 l 25
 40 20 l 25
 40 400 l 25
 80 400 l 25
 200 20 l 25
 240 20 l 25
 240 -20 l 25
 200 -20 l 25
 80 -400 l 25
 40 -400 l 25
 40 -20 l 25xd0
EndSplineSet
Validated: 1
EndChar

StartChar: N
Encoding: 78 78 9
Width: 240
Flags: W
HStem: -200 21G<40 93.3333> -20 40<0 40 200 240> 180 20G<40 93.3333> 180 20G<40 93.3333>
VStem: 0 240<-20 20>
LayerCount: 2
Fore
SplineSet
40 -20 m 25xe8
 0 -20 l 25
 0 20 l 25
 40 20 l 25
 40 200 l 25
 80 200 l 25
 200 20 l 25
 240 20 l 25
 240 -20 l 25
 200 -20 l 25
 80 -200 l 25
 40 -200 l 25
 40 -20 l 25xe8
EndSplineSet
Validated: 1
EndChar

StartChar: z
Encoding: 122 122 10
Width: 240
Flags: W
HStem: -20 40<0 40 80 160 200 240> 380 20G<40 86.3158> 380 20G<40 86.3158>
VStem: 40 40<-400 -373.4 -260 -20 20 260 373.4 400>
LayerCount: 2
Fore
SplineSet
160 -20 m 25x90
 80 -20 l 25
 80 -260 l 25
 160 -20 l 25x90
80 20 m 25
 160 20 l 25
 80 260 l 25
 80 20 l 25
40 -20 m 25
 0 -20 l 25
 0 20 l 25
 40 20 l 25
 40 400 l 25
 80 400 l 25xd0
 200 20 l 25
 240 20 l 25
 240 -20 l 25
 200 -20 l 25
 80 -400 l 25
 40 -400 l 25
 40 -20 l 25
EndSplineSet
Validated: 1
EndChar

StartChar: n
Encoding: 110 110 11
Width: 240
Flags: W
HStem: -200 21G<40 93.3333> -20 40<0 40 80 160 200 240> 180 20G<40 93.3333> 180 20G<40 93.3333>
VStem: 40 40<-140 -20 20 140>
LayerCount: 2
Fore
SplineSet
160 -20 m 29xc8
 80 -20 l 29
 80 -140 l 29
 160 -20 l 29xc8
80 20 m 29
 160 20 l 29
 80 140 l 29
 80 20 l 29
40 -20 m 29
 0 -20 l 29
 0 20 l 29
 40 20 l 29
 40 200 l 29
 80 200 l 29xe8
 200 20 l 29
 240 20 l 29
 240 -20 l 29
 200 -20 l 29
 80 -200 l 29
 40 -200 l 29
 40 -20 l 29
EndSplineSet
Validated: 1
EndChar

StartChar: p
Encoding: 112 112 12
Width: 240
Flags: W
HStem: -20 40<0 40 80 160 200 240> 580 20G<117.241 122.759>
VStem: 0 240<-20 20>
LayerCount: 2
Fore
SplineSet
160 -20 m 25
 80 -20 l 25
 120 -360 l 25
 160 -20 l 25
80 20 m 25
 160 20 l 25
 120 360 l 25
 80 20 l 25
40 -20 m 25
 0 -20 l 25
 0 20 l 25
 40 20 l 25
 120 600 l 25
 200 20 l 25
 240 20 l 25
 240 -20 l 25
 200 -20 l 25
 120 -600 l 25
 40 -20 l 25
EndSplineSet
Validated: 1
EndChar

StartChar: b
Encoding: 98 98 13
Width: 240
Flags: W
HStem: -20 40<0 40 80 160 200 240> 380 20G<115.789 124.211> 380 20G<115.789 124.211>
VStem: 0 240<-20 20>
LayerCount: 2
Fore
SplineSet
160 -20 m 25x90
 80 -20 l 25
 120 -210 l 25
 160 -20 l 25x90
80 20 m 25
 160 20 l 25
 120 210 l 25
 80 20 l 25
40 -20 m 25
 0 -20 l 25
 0 20 l 25
 40 20 l 25
 120 400 l 25xd0
 200 20 l 25
 240 20 l 25
 240 -20 l 25
 200 -20 l 25
 120 -400 l 25
 40 -20 l 25
EndSplineSet
Validated: 1
EndChar

StartChar: m
Encoding: 109 109 14
Width: 240
Flags: W
HStem: -200 21G<111.111 128.889> -20 40<0 40 80 160 200 240> 180 20G<111.111 128.889> 180 20G<111.111 128.889>
VStem: 0 240<-20 20>
LayerCount: 2
Fore
SplineSet
160 -20 m 25xc8
 80 -20 l 25
 120 -110 l 25
 160 -20 l 25xc8
80 20 m 25
 160 20 l 25
 120 110 l 29
 80 20 l 25
40 -20 m 25
 0 -20 l 25
 0 20 l 25
 40 20 l 25
 120 200 l 25xe8
 200 20 l 25
 240 20 l 25
 240 -20 l 25
 200 -20 l 25
 120 -200 l 25
 40 -20 l 25
EndSplineSet
Validated: 1
EndChar

StartChar: P
Encoding: 80 80 15
Width: 240
Flags: W
HStem: -20 40<0 40 200 240> 580 20G<117.241 122.759>
VStem: 0 240<-20 20>
LayerCount: 2
Fore
SplineSet
40 -20 m 25
 0 -20 l 25
 0 20 l 25
 40 20 l 25
 120 600 l 25
 200 20 l 25
 240 20 l 25
 240 -20 l 25
 200 -20 l 25
 120 -600 l 25
 40 -20 l 25
EndSplineSet
Validated: 1
EndChar

StartChar: B
Encoding: 66 66 16
Width: 240
Flags: W
HStem: -20 40<0 40 200 240> 380 20G<115.789 124.211> 380 20G<115.789 124.211>
VStem: 0 240<-20 20>
LayerCount: 2
Fore
SplineSet
40 -20 m 25xd0
 0 -20 l 25
 0 20 l 25
 40 20 l 25
 120 400 l 25
 200 20 l 25
 240 20 l 25
 240 -20 l 25
 200 -20 l 25
 120 -400 l 25
 40 -20 l 25xd0
EndSplineSet
Validated: 1
EndChar

StartChar: M
Encoding: 77 77 17
Width: 240
Flags: W
HStem: -200 21G<111.111 128.889> -20 40<0 40 200 240> 180 20G<111.111 128.889> 180 20G<111.111 128.889>
VStem: 0 240<-20 20>
LayerCount: 2
Fore
SplineSet
40 -20 m 25xe8
 0 -20 l 25
 0 20 l 25
 40 20 l 25
 120 200 l 25
 200 20 l 25
 240 20 l 25
 240 -20 l 25
 200 -20 l 25
 120 -200 l 25
 40 -20 l 25xe8
EndSplineSet
Validated: 1
EndChar

StartChar: t
Encoding: 116 116 18
Width: 240
Flags: W
HStem: -20 40<0 40 80 160 200 240>
VStem: 160 40<-600 -559.4 -400 -20 20 400 559.4 600>
LayerCount: 2
Fore
SplineSet
160 -20 m 29
 80 -20 l 29
 160 -400 l 29
 160 -20 l 29
80 20 m 29
 160 20 l 29
 160 400 l 29
 80 20 l 29
40 -20 m 29
 0 -20 l 29
 0 20 l 29
 40 20 l 29
 160 600 l 29
 200 600 l 29
 200 20 l 29
 240 20 l 29
 240 -20 l 29
 200 -20 l 29
 200 -600 l 29
 160 -600 l 29
 40 -20 l 29
EndSplineSet
Validated: 1
EndChar

StartChar: d
Encoding: 100 100 19
Width: 240
Flags: W
HStem: -20 40<0 40 80 160 200 240> 380 20G<153.684 200> 380 20G<153.684 200>
VStem: 160 40<-400 -373.4 -270 -20 20 270 373.4 400>
LayerCount: 2
Fore
SplineSet
160 -20 m 29x90
 80 -20 l 29
 160 -270 l 29
 160 -20 l 29x90
80 20 m 29
 160 20 l 29
 160 270 l 29
 80 20 l 29
40 -20 m 29
 0 -20 l 29
 0 20 l 29
 40 20 l 29
 160 400 l 29
 200 400 l 29xd0
 200 20 l 29
 240 20 l 29
 240 -20 l 29
 200 -20 l 29
 200 -400 l 29
 160 -400 l 29
 40 -20 l 29
EndSplineSet
Validated: 1
EndChar

StartChar: r
Encoding: 114 114 20
Width: 240
Flags: W
HStem: -200 21G<146.667 200> -20 40<0 40 80 160 200 240> 180 20G<146.667 200> 180 20G<146.667 200>
VStem: 160 40<-140 -20 20 140>
LayerCount: 2
Fore
SplineSet
160 -20 m 25xc8
 80 -20 l 25
 160 -140 l 25
 160 -20 l 25xc8
80 20 m 25
 160 20 l 25
 160 140 l 29
 80 20 l 25
40 -20 m 25
 0 -20 l 25
 0 20 l 25
 40 20 l 25
 160 200 l 25
 200 200 l 25xe8
 200 20 l 25
 240 20 l 25
 240 -20 l 25
 200 -20 l 25
 200 -200 l 25
 160 -200 l 25
 40 -20 l 25
EndSplineSet
Validated: 1
EndChar

StartChar: T
Encoding: 84 84 21
Width: 240
Flags: W
HStem: -20 40<0 40 200 240> 580 20G<155.862 200>
VStem: 160 40<-600 -559.4 559.4 600>
LayerCount: 2
Fore
SplineSet
40 -20 m 25
 0 -20 l 25
 0 20 l 25
 40 20 l 25
 160 600 l 25
 200 600 l 25
 200 20 l 25
 240 20 l 25
 240 -20 l 25
 200 -20 l 25
 200 -600 l 25
 160 -600 l 25
 40 -20 l 25
EndSplineSet
Validated: 1
EndChar

StartChar: D
Encoding: 68 68 22
Width: 240
Flags: W
HStem: -20 40<0 40 200 240> 380 20G<153.684 200> 380 20G<153.684 200>
VStem: 160 40<-400 -373.4 373.4 400>
LayerCount: 2
Fore
SplineSet
40 -20 m 25xd0
 0 -20 l 25
 0 20 l 25
 40 20 l 25
 160 400 l 25
 200 400 l 25
 200 20 l 25
 240 20 l 25
 240 -20 l 25
 200 -20 l 25
 200 -400 l 25
 160 -400 l 25
 40 -20 l 25xd0
EndSplineSet
Validated: 1
EndChar

StartChar: R
Encoding: 82 82 23
Width: 240
Flags: W
HStem: -200 21G<146.667 200> -20 40<0 40 200 240> 180 20G<146.667 200> 180 20G<146.667 200>
VStem: 0 240<-20 20>
LayerCount: 2
Fore
SplineSet
40 -20 m 25xe8
 0 -20 l 25
 0 20 l 25
 40 20 l 25
 160 200 l 25
 200 200 l 25
 200 20 l 25
 240 20 l 25
 240 -20 l 25
 200 -20 l 25
 200 -200 l 25
 160 -200 l 25
 40 -20 l 25xe8
EndSplineSet
Validated: 1
EndChar

StartChar: Thorn
Encoding: 222 222 24
Width: 401
Flags: W
HStem: -20 40<0 40 200 240 280 320 359.667 400.667> 380 20G<153.684 200> 380 20G<153.684 200>
VStem: 160 40<-400 -373.4 373.4 400> 240 40<-100 -20 20 100> 320 39.667<-100 -20 20 100>
LayerCount: 2
Fore
SplineSet
200 -20 m 25xdc
 200 -400 l 25
 160 -400 l 25
 40 -20 l 25
 0 -20 l 25
 0 20 l 25
 40 20 l 25
 160 400 l 25
 200 400 l 25
 200 20 l 25
 240 20 l 25
 240 100 l 25
 280 100 l 25
 280 20 l 25
 320 20 l 25
 320 100 l 25
 359.666992188 100 l 25
 359.666687012 20 l 25
 400.666992188 20 l 29
 400.666992188 -20 l 29
 359.666687012 -20 l 25
 359.666992188 -100 l 25
 320 -100 l 25
 320 -20 l 25
 280 -20 l 25
 280 -100 l 25
 240 -100 l 25
 240 -20 l 25
 200 -20 l 25xdc
EndSplineSet
Validated: 1
EndChar

StartChar: thorn
Encoding: 254 254 25
Width: 401
Flags: W
HStem: -20 40<0 40 80 160 200 240 280 320 359.667 400.667> 380 20G<153.684 200> 380 20G<153.684 200>
VStem: 160 40<-400 -373.4 -270 -20 20 270 373.4 400> 240 40<-100 -20 20 100> 320 39.667<-100 -20 20 100>
LayerCount: 2
Fore
SplineSet
160 -20 m 25x9c
 80 -20 l 25
 160 -270 l 25
 160 -20 l 25x9c
80 20 m 25
 160 20 l 25
 160 270 l 25
 80 20 l 25
200 -20 m 25
 200 -400 l 25
 160 -400 l 25
 40 -20 l 25
 0 -20 l 25
 0 20 l 25
 40 20 l 25
 160 400 l 25
 200 400 l 25xdc
 200 20 l 25
 240 20 l 25
 240 100 l 25
 280 100 l 25
 280 20 l 25
 320 20 l 25
 320 100 l 25
 359.666992188 100 l 25
 359.666687012 20 l 25
 400.666992188 20 l 29
 400.666992188 -20 l 29
 359.666687012 -20 l 25
 359.666992188 -100 l 25
 320 -100 l 25
 320 -20 l 25
 280 -20 l 25
 280 -100 l 25
 240 -100 l 25
 240 -20 l 25
 200 -20 l 25
EndSplineSet
Validated: 1
EndChar

StartChar: h
Encoding: 104 104 26
Width: 320
Flags: W
HStem: -200 21G<40 93.3333> -20 40<0 40 80 160 200 240 280 320> 180 20G<40 93.3333> 180 20G<40 93.3333>
VStem: 40 40<-140 -20 20 140> 240 40<-100 -20 20 100>
LayerCount: 2
Fore
SplineSet
160 -20 m 25xcc
 80 -20 l 25
 80 -140 l 25
 160 -20 l 25xcc
80 20 m 25
 160 20 l 25
 80 140 l 25
 80 20 l 25
200 -20 m 25
 80 -200 l 25
 40 -200 l 25
 40 -20 l 25
 0 -20 l 25
 0 20 l 25
 40 20 l 25
 40 200 l 25
 80 200 l 25xec
 200 20 l 25
 240 20 l 25
 240 100 l 25
 280 100 l 25
 280 20 l 25
 320 20 l 25
 320 -20 l 25
 280 -20 l 25
 280 -100 l 25
 240 -100 l 25
 240 -20 l 25
 200 -20 l 25
EndSplineSet
Validated: 1
EndChar

StartChar: l
Encoding: 108 108 27
Width: 320
Flags: W
HStem: -200 21G<146.667 200> -20 40<0 40 80 160 200 240 280 320> 180 20G<146.667 200> 180 20G<146.667 200>
VStem: 160 40<-140 -20 20 140> 240 40<-100 -20 20 100>
LayerCount: 2
Fore
SplineSet
160 -20 m 25xcc
 80 -20 l 25
 160 -140 l 25
 160 -20 l 25xcc
80 20 m 25
 160 20 l 25
 160 140 l 25
 80 20 l 25
200 -20 m 25
 200 -200 l 25
 160 -200 l 25
 40 -20 l 25
 0 -20 l 25
 0 20 l 25
 40 20 l 25
 160 200 l 25
 200 200 l 25xec
 200 20 l 25
 240 20 l 25
 240 100 l 25
 280 100 l 25
 280 20 l 25
 320 20 l 25
 320 -20 l 25
 280 -20 l 25
 280 -100 l 25
 240 -100 l 25
 240 -20 l 25
 200 -20 l 25
EndSplineSet
Validated: 1
EndChar

StartChar: v
Encoding: 118 118 28
Width: 320
Flags: W
HStem: -200 21G<111.111 128.889> -20 40<0 40 80 160 200 240 280 320> 180 20G<111.111 128.889> 180 20G<111.111 128.889>
VStem: 240 40<-100 -20 20 100>
LayerCount: 2
Fore
SplineSet
160 -20 m 25xc8
 80 -20 l 25
 120 -110 l 25
 160 -20 l 25xc8
80 20 m 25
 160 20 l 25
 120 110 l 25
 80 20 l 25
200 -20 m 29
 120 -200 l 25
 40 -20 l 25
 0 -20 l 25
 0 20 l 25
 40 20 l 25
 120 200 l 25xe8
 200 20 l 25
 240 20 l 25
 240 100 l 25
 280 100 l 25
 280 20 l 25
 320 20 l 25
 320 -20 l 25
 280 -20 l 25
 280 -100 l 25
 240 -100 l 25
 240 -20 l 25
 200 -20 l 29
EndSplineSet
Validated: 1
EndChar

StartChar: H
Encoding: 72 72 29
Width: 320
Flags: W
HStem: -200 21G<40 93.3333> -20 40<0 40 200 240 280 320> 180 20G<40 93.3333> 180 20G<40 93.3333>
VStem: 240 40<-100 -20 20 100>
LayerCount: 2
Fore
SplineSet
200 -20 m 25xe8
 80 -200 l 25
 40 -200 l 25
 40 -20 l 25
 0 -20 l 25
 0 20 l 25
 40 20 l 25
 40 200 l 25
 80 200 l 25
 200 20 l 25
 240 20 l 25
 240 100 l 25
 280 100 l 25
 280 20 l 25
 320 20 l 25
 320 -20 l 25
 280 -20 l 25
 280 -100 l 25
 240 -100 l 25
 240 -20 l 25
 200 -20 l 25xe8
EndSplineSet
Validated: 1
EndChar

StartChar: L
Encoding: 76 76 30
Width: 320
Flags: W
HStem: -200 21G<146.667 200> -20 40<0 40 200 240 280 320> 180 20G<146.667 200> 180 20G<146.667 200>
VStem: 240 40<-100 -20 20 100>
LayerCount: 2
Fore
SplineSet
200 -20 m 25xe8
 200 -200 l 25
 160 -200 l 25
 40 -20 l 25
 0 -20 l 25
 0 20 l 25
 40 20 l 25
 160 200 l 25
 200 200 l 25
 200 20 l 25
 240 20 l 25
 240 100 l 25
 280 100 l 25
 280 20 l 25
 320 20 l 25
 320 -20 l 25
 280 -20 l 25
 280 -100 l 25
 240 -100 l 25
 240 -20 l 25
 200 -20 l 25xe8
EndSplineSet
Validated: 1
EndChar

StartChar: V
Encoding: 86 86 31
Width: 320
Flags: W
HStem: -200 21G<111.111 128.889> -20 40<0 40 200 240 280 320> 180 20G<111.111 128.889> 180 20G<111.111 128.889>
VStem: 240 40<-100 -20 20 100>
LayerCount: 2
Fore
SplineSet
200 -20 m 25xe8
 120 -200 l 25
 40 -20 l 25
 0 -20 l 25
 0 20 l 25
 40 20 l 25
 120 200 l 25
 200 20 l 25
 240 20 l 25
 240 100 l 25
 280 100 l 25
 280 20 l 25
 320 20 l 25
 320 -20 l 25
 280 -20 l 25
 280 -100 l 25
 240 -100 l 25
 240 -20 l 25
 200 -20 l 25xe8
EndSplineSet
Validated: 1
EndChar

StartChar: A
Encoding: 65 65 32
Width: 120
Flags: W
HStem: -20 40<0 40 120 160> 380 20G<40 120> 380 20G<40 120>
VStem: 40 80<-400 -20 20 400>
LayerCount: 2
Fore
SplineSet
0 20 m 25xd0
 40 20 l 25
 40 400 l 25
 120 400 l 25
 120 20 l 25
 160 20 l 25
 160 -20 l 25
 120 -20 l 29
 120 -400 l 29
 40 -400 l 25
 40 -20 l 25
 0 -20 l 25
 0 20 l 25xd0
EndSplineSet
Validated: 1
EndChar

StartChar: E
Encoding: 69 69 33
Width: 120
Flags: W
HStem: -20 40<0 40 120 160> 540 20G<40 120>
VStem: 40 80<-560 -20 20 560>
LayerCount: 2
Fore
SplineSet
0 20 m 25
 40 20 l 25
 40 560 l 25
 120 560 l 25
 120 20 l 25
 160 20 l 25
 160 -20 l 25
 120 -20 l 25
 120 -560 l 29
 40 -560 l 29
 40 -20 l 25
 0 -20 l 25
 0 20 l 25
EndSplineSet
Validated: 1
EndChar

StartChar: O
Encoding: 79 79 34
Width: 120
Flags: W
HStem: -200 21G<40 120> -20 40<0 40 120 160> 180 20G<40 120> 180 20G<40 120>
VStem: 40 80<-200 -20 20 200>
LayerCount: 2
Fore
SplineSet
0 20 m 25xe8
 40 20 l 25
 40 200 l 25
 120 200 l 25
 120 20 l 25
 160 20 l 25
 160 -20 l 25
 120 -20 l 25
 120 -200 l 29
 40 -200 l 29
 40 -20 l 25
 0 -20 l 25
 0 20 l 25xe8
EndSplineSet
Validated: 1
EndChar

StartChar: I
Encoding: 73 73 35
Width: 280
Flags: W
HStem: -201 21G<40 120> -20 40<0 40 120 160 240 280> 180 20G<40 120> 180 20G<40 120>
VStem: 40 80<-200 -20 20 200> 160 80<-100 -20 20 100>
LayerCount: 2
Fore
SplineSet
0 -20 m 25xec
 0 20 l 25
 40 20 l 25
 40 200 l 25
 120 200 l 25
 120 20 l 25
 160 20 l 25
 160 100 l 25
 240 100 l 25
 240 20 l 25
 280 20 l 25
 280 -20 l 25
 240 -20 l 25
 240 -100 l 25
 160 -100 l 25
 160 -20 l 25
 120 -20 l 25
 120 -200 l 25
 40 -201 l 25
 40 -20 l 25
 0 -20 l 25xec
EndSplineSet
Validated: 1
EndChar

StartChar: U
Encoding: 85 85 36
Width: 400
Flags: W
HStem: -100 200<160 240 280 360> -20 40<0 40 120 160 240 280 360 400> 380 20G<40 120> 380 20G<40 120>
VStem: 40 80<-400 -20 20 400> 160 80<-100 -20 20 100> 280 80<-100 -20 20 100>
CounterMasks: 1 0e
LayerCount: 2
Fore
SplineSet
0 20 m 25x4e
 40 20 l 25
 40 400 l 25
 120 400 l 25
 120 20 l 25
 160 20 l 25x6e
 160 100 l 25
 240 100 l 25x8e
 240 20 l 25
 280 20 l 25x4e
 280 100 l 25
 360 100 l 25x8e
 360 20 l 25
 400 20 l 25
 400 -20 l 25
 360 -20 l 25x4e
 360 -100 l 25
 280 -100 l 25x8e
 280 -20 l 25
 240 -20 l 25x4e
 240 -100 l 25
 160 -100 l 25x8e
 160 -20 l 25
 120 -20 l 25
 120 -400 l 25
 40 -400 l 25
 40 -20 l 25
 0 -20 l 25
 0 20 l 25x4e
EndSplineSet
Validated: 1
EndChar

StartChar: W
Encoding: 87 87 37
Width: 400
Flags: W
HStem: -100 200<160 240 280 360> -20 40<0 40 120 160 240 280 360 400> 380 20G<40 120> 380 20G<40 120>
VStem: 40 80<-400 -20 20 400> 160 80<-100 -20 20 100> 280 80<-100 -20 20 100>
CounterMasks: 1 0e
LayerCount: 2
Fore
SplineSet
0 20 m 25x4e
 40 20 l 25
 40 400 l 25
 120 400 l 25
 120 20 l 25
 160 20 l 25x6e
 160 100 l 25
 240 100 l 25x8e
 240 20 l 25
 280 20 l 25x4e
 280 100 l 25
 360 100 l 25x8e
 360 20 l 25
 400 20 l 25
 400 -20 l 25
 360 -20 l 25x4e
 360 -100 l 25
 280 -100 l 25x8e
 280 -20 l 25
 240 -20 l 25x4e
 240 -100 l 25
 160 -100 l 25x8e
 160 -20 l 25
 120 -20 l 25
 120 -400 l 25
 40 -400 l 25
 40 -20 l 25
 0 -20 l 25
 0 20 l 25x4e
EndSplineSet
Validated: 1
EndChar

StartChar: f
Encoding: 102 102 38
Width: 400
Flags: W
HStem: -20 40<0 40 80 160 200 240 280 320 359.667 399.667> 380 20G<115.789 124.211> 380 20G<115.789 124.211>
VStem: 240 40<-100 -20 20 100> 320 39.667<-100 -20 20 100>
LayerCount: 2
Fore
SplineSet
160 -20 m 25x98
 80 -20 l 25
 120 -210 l 25
 160 -20 l 25x98
80 20 m 25
 160 20 l 25
 120 210 l 25
 80 20 l 25
200 -20 m 25
 120 -400 l 25
 40 -20 l 25
 0 -20 l 25
 0 20 l 25
 40 20 l 25
 120 400 l 25xd8
 200 20 l 25
 240 20 l 25
 240 100 l 25
 280 100 l 25
 280 20 l 25
 320 20 l 25
 320 100 l 25
 359.666687012 100 l 25
 359.666687012 20 l 25
 399.666992188 20 l 25
 399.666992188 -20 l 25
 359.666992188 -20 l 25
 359.666992188 -100 l 25
 320 -100 l 25
 320 -20 l 25
 280 -20 l 25
 280 -100 l 25
 240 -100 l 25
 240 -20 l 25
 200 -20 l 25
EndSplineSet
Validated: 1
EndChar

StartChar: F
Encoding: 70 70 39
Width: 400
Flags: W
HStem: -20 40<0 40 200 240 280 320 359.667 399.667> 380 20G<115.789 124.211> 380 20G<115.789 124.211>
VStem: 240 40<-100 -20 20 100> 320 39.667<-100 -20 20 100>
LayerCount: 2
Fore
SplineSet
200 -20 m 25xd8
 120 -400 l 25
 40 -20 l 25
 0 -20 l 25
 0 20 l 25
 40 20 l 25
 120 400 l 25
 200 20 l 25
 240 20 l 25
 240 100 l 25
 280 100 l 25
 280 20 l 25
 320 20 l 25
 320 100 l 25
 359.666687012 100 l 25
 359.666687012 20 l 25
 399.666992188 20 l 25
 399.666992188 -20 l 25
 359.666992188 -20 l 25
 359.666992188 -100 l 25
 320 -100 l 25
 320 -20 l 25
 280 -20 l 25
 280 -100 l 25
 240 -100 l 25
 240 -20 l 25
 200 -20 l 25xd8
EndSplineSet
Validated: 1
EndChar

StartChar: k
Encoding: 107 107 40
Width: 240
Flags: W
HStem: -20 40<0 40 80 160 200 240> 291 21G<117.667 142.246> 291 21G<117.667 142.246> 380 20G<77.8947 100> 380 20G<77.8947 100 193.333 200>
VStem: 160 40<-360 -20 20 360>
LayerCount: 2
Fore
SplineSet
160 -20 m 29x84
 80 -20 l 29
 109 -321 l 29
 135 -291 l 29
 160 -360 l 29
 160 -20 l 29x84
160 20 m 29
 160 360 l 29
 135 291 l 29xc4
 109 321 l 29
 80 20 l 29
 160 20 l 29
40 -20 m 29
 0 -20 l 29
 0 20 l 29
 40 20 l 29
 80 400 l 29x94
 120 360 l 29
 200 600 l 29
 200 20 l 29
 240 20 l 29
 240 -20 l 29
 200 -20 l 29
 200 -599 l 29
 120 -360 l 29
 80 -400 l 29
 40 -20 l 29
EndSplineSet
Validated: 1
EndChar

StartChar: K
Encoding: 75 75 41
Width: 240
Flags: W
HStem: -20 40<0 40 200 240> 380 20G<77.8947 100> 380 20G<77.8947 100 193.333 200>
VStem: 40 160<-99.8 -20 20 99.8>
LayerCount: 2
Fore
SplineSet
40 -20 m 25xd0
 0 -20 l 25
 0 20 l 25
 40 20 l 25
 80 400 l 25
 120 360 l 25
 200 600 l 25
 200 20 l 25
 240 20 l 25
 240 -20 l 29
 200 -20 l 25
 200 -599 l 25
 120 -360 l 25
 80 -400 l 25
 40 -20 l 25xd0
EndSplineSet
Validated: 1
EndChar

StartChar: t_h
Encoding: 256 -1 42
Width: 400
Flags: W
HStem: -20 40<0 40 80 160 200 240 280 320 359.667 399.667> 380 20G<153.684 200> 380 20G<153.684 200>
VStem: 160 40<-400 -373.4 -270 -20 20 270 373.4 400> 240 40<-100 -20 20 100> 320 39.667<-100 -20 20 100>
LayerCount: 2
Fore
SplineSet
160 -20 m 25x9c
 80 -20 l 25
 160 -270 l 25
 160 -20 l 25x9c
80 20 m 25
 160 20 l 25
 160 270 l 25
 80 20 l 25
200 -20 m 25
 200 -400 l 25
 160 -400 l 25
 40 -20 l 25
 0 -20 l 25
 0 20 l 25
 40 20 l 25
 160 400 l 25
 200 400 l 25xdc
 200 20 l 25
 240 20 l 25
 240 100 l 25
 280 100 l 25
 280 20 l 25
 320 20 l 25
 320 100 l 25
 359.666992188 100 l 25
 359.666687012 20 l 25
 399.666687012 20 l 25
 399.666992188 -20 l 25
 359.666687012 -20 l 25
 359.666992188 -100 l 25
 320 -100 l 25
 320 -20 l 25
 280 -20 l 25
 280 -100 l 25
 240 -100 l 25
 240 -20 l 25
 200 -20 l 25
EndSplineSet
Validated: 1
Ligature2: "t_h ligature-1" t h
EndChar

StartChar: T_H
Encoding: 257 -1 43
Width: 400
Flags: W
HStem: -20 40<0 40 200 240 280 320 359.667 399.667> 380 20G<153.684 200> 380 20G<153.684 200>
VStem: 160 40<-400 -373.4 373.4 400> 240 40<-100 -20 20 100> 320 39.667<-100 -20 20 100>
LayerCount: 2
Fore
SplineSet
200 -20 m 25xdc
 200 -400 l 25
 160 -400 l 25
 40 -20 l 25
 0 -20 l 25
 0 20 l 25
 40 20 l 25
 160 400 l 25
 200 400 l 25
 200 20 l 25
 240 20 l 25
 240 100 l 25
 280 100 l 25
 280 20 l 25
 320 20 l 25
 320 100 l 25
 359.666992188 100 l 25
 359.666687012 20 l 25
 399.666687012 20 l 25
 399.666992188 -20 l 25
 359.666687012 -20 l 25
 359.666992188 -100 l 25
 320 -100 l 25
 320 -20 l 25
 280 -20 l 25
 280 -100 l 25
 240 -100 l 25
 240 -20 l 25
 200 -20 l 25xdc
EndSplineSet
Validated: 1
Ligature2: "T_H-1" T H
EndChar

StartChar: s_h
Encoding: 258 -1 44
Width: 402
Flags: W
HStem: -20 40<0 40 80 160 200 240 280 320 359.667 399.667> 380 20G<40 86.3158> 380 20G<40 86.3158>
VStem: 40 40<-400 -373.4 -260 -20 20 260 373.4 400> 240 40<-100 -20 20 100> 320 39.6667<-100 -20 20 100>
LayerCount: 2
Fore
SplineSet
160 -20 m 25x9c
 80 -20 l 25
 80 -260 l 25
 160 -20 l 25x9c
80 20 m 25
 160 20 l 25
 80 260 l 25
 80 20 l 25
200 -20 m 25
 80 -400 l 25
 40 -400 l 25
 40 -20 l 25
 0 -20 l 25
 0 20 l 25
 40 20 l 25
 40 400 l 25
 80 400 l 25xdc
 200 20 l 25
 240 20 l 25
 240 100 l 25
 280 100 l 25
 280 20 l 25
 320 20 l 25
 320 100 l 25
 359.666992188 100 l 25
 359.666992188 20 l 25
 399.666687012 20 l 25
 399.666687012 -20 l 25
 359.666687012 -20 l 25
 359.666687012 -100 l 25
 320 -100 l 25
 320 -20 l 25
 280 -20 l 25
 280 -100 l 25
 240 -100 l 25
 240 -20 l 25
 200 -20 l 25
EndSplineSet
Validated: 1
Ligature2: "s_h-1" s h
EndChar

StartChar: S_H
Encoding: 259 -1 45
Width: 400
Flags: W
HStem: -20 40<0 40 200 240 280 320 359.667 399.667> 380 20G<40 86.3158> 380 20G<40 86.3158>
VStem: 40 40<-400 -373.4 373.4 400> 240 40<-100 -20 20 100> 320 39.6667<-100 -20 20 100>
LayerCount: 2
Fore
SplineSet
200 -20 m 25xdc
 80 -400 l 25
 40 -400 l 25
 40 -20 l 25
 0 -20 l 25
 0 20 l 25
 40 20 l 25
 40 400 l 25
 80 400 l 25
 200 20 l 25
 240 20 l 25
 240 100 l 25
 280 100 l 25
 280 20 l 25
 320 20 l 25
 320 100 l 25
 359.666992188 100 l 25
 359.666992188 20 l 25
 399.666687012 20 l 25
 399.666687012 -20 l 25
 359.666687012 -20 l 25
 359.666687012 -100 l 25
 320 -100 l 25
 320 -20 l 25
 280 -20 l 25
 280 -100 l 25
 240 -100 l 25
 240 -20 l 25
 200 -20 l 25xdc
EndSplineSet
Validated: 1
Ligature2: "S_H-1" S H
EndChar

StartChar: g
Encoding: 103 103 46
Width: 240
Flags: W
HStem: -20 40<0 40 80 160 200 240> 220 20G<76.3636 100 192 200> 220 20G<76.3636 100 192 200>
VStem: 160 40<-200 -20 20 200>
LayerCount: 2
Fore
SplineSet
160 -20 m 25x90
 80 -20 l 25
 109 -160 l 25
 135 -132 l 25
 160 -200 l 25
 160 -20 l 25x90
160 20 m 25
 160 200 l 25
 135 131 l 25
 109 160 l 25
 80 20 l 25
 160 20 l 25
40 -20 m 25
 0 -20 l 25
 0 20 l 25
 40 20 l 25
 80 240 l 25xd0
 120 200 l 25
 200 400 l 25
 200 20 l 25
 240 20 l 25
 240 -20 l 25
 200 -20 l 25
 200 -400 l 29
 120 -200 l 25
 80 -241 l 25
 40 -20 l 25
EndSplineSet
Validated: 1
EndChar

StartChar: G
Encoding: 71 71 47
Width: 240
Flags: W
HStem: -20 40<0 40 200 240> 220 20G<76.3636 100 192 200> 220 20G<76.3636 100 192 200>
VStem: 40 160<-66.41 -20 20 66.2>
LayerCount: 2
Fore
SplineSet
40 -20 m 25xd0
 0 -20 l 25
 0 20 l 25
 40 20 l 25
 80 240 l 25
 120 200 l 25
 200 400 l 25
 200 20 l 25
 240 20 l 25
 240 -21 l 25
 200 -20 l 25
 200 -399 l 25
 120 -200 l 25
 80 -241 l 25
 40 -20 l 25xd0
EndSplineSet
Validated: 1
EndChar

StartChar: y
Encoding: 121 121 48
Width: 240
Flags: W
HStem: -200 21G<186.667 200> -20 40<0 40 80 160 200 240> 180 20G<186.667 200> 180 20G<186.667 200>
VStem: 160 40<-83 -20 20 83>
LayerCount: 2
Fore
SplineSet
100 -150 m 1049xc8
160 -20 m 25
 80 -20 l 25
 109 -83 l 25
 136 -51 l 25
 160 -83 l 25
 160 -20 l 25
160 20 m 25
 160 83 l 25
 136 51 l 25
 109 83 l 25
 80 20 l 25
 160 20 l 25
40 -20 m 25
 0 -20 l 25
 0 20 l 25
 40 20 l 25
 100 150 l 25
 140 110 l 25
 200 200 l 25xe8
 200 20 l 25
 240 20 l 25
 240 -21 l 25
 200 -20 l 25
 200 -200 l 25
 140 -110 l 25
 100 -150 l 25
 40 -20 l 25
EndSplineSet
Validated: 1
EndChar

StartChar: Y
Encoding: 89 89 49
Width: 240
Flags: W
HStem: -200 21G<186.667 200> -20 40<0 40 200 240> 180 20G<186.667 200> 180 20G<186.667 200>
VStem: 0 240<-20 20>
LayerCount: 2
Fore
SplineSet
100 -150 m 1049xc8
40 -20 m 25
 0 -20 l 25
 0 20 l 25
 40 20 l 25
 100 150 l 25
 140 110 l 25
 200 200 l 25xe8
 200 20 l 25
 240 20 l 25
 240 -20 l 29
 200 -20 l 25
 200 -200 l 25
 140 -110 l 25
 100 -150 l 25
 40 -20 l 25
EndSplineSet
Validated: 1
EndChar

StartChar: c_h
Encoding: 260 -1 50
Width: 399
Flags: W
HStem: -20 40<0 40 80 160 200 240 280 320 359.667 399.667> 220 20G<76.3636 100 192 200> 220 20G<76.3636 100 192 200>
VStem: 160 40<-200 -20 20 200> 240 40<-100 -20 20 100> 320 39.6667<-100 -20 20 100>
LayerCount: 2
Fore
SplineSet
160 -20 m 25x9c
 80 -20 l 25
 109 -160 l 25
 135 -132 l 25
 160 -200 l 25
 160 -20 l 25x9c
160 20 m 25
 160 200 l 25
 135 131 l 25
 109 160 l 25
 80 20 l 25
 160 20 l 25
200 -20 m 25
 200 -400 l 25
 120 -200 l 25
 80 -241 l 25
 40 -20 l 25
 0 -20 l 25
 0 20 l 25
 40 20 l 25
 80 240 l 25xdc
 120 200 l 25
 200 400 l 25
 200 20 l 25
 240 20 l 25
 240 100 l 25
 280 100 l 25
 280 20 l 25
 320 20 l 25
 320 100 l 25
 359.666687012 100 l 25
 359.666687012 20 l 1
 399.666992188 20 l 25
 399.666992188 -20 l 1
 359.666687012 -20 l 25
 359.666687012 -100 l 25
 320 -100 l 25
 320 -20 l 25
 280 -20 l 25
 280 -100 l 25
 240 -100 l 25
 240 -20 l 25
 200 -20 l 25
EndSplineSet
Validated: 1
Ligature2: "c_h-1" c h
EndChar

StartChar: C_H
Encoding: 261 -1 51
Width: 399
Flags: W
HStem: -20 40<0 40 200 240 280 320 359.667 399.667> 220 20G<76.3636 100 192 200> 220 20G<76.3636 100 192 200>
VStem: 40 160<-66.41 -20 20 66.2> 240 40<-100 -20 20 100> 320 39.6667<-100 -20 20 100>
LayerCount: 2
Fore
SplineSet
200 -20 m 25xdc
 200 -400 l 25
 120 -200 l 25
 80 -241 l 25
 40 -20 l 25
 0 -20 l 25
 0 20 l 25
 40 20 l 25
 80 240 l 25
 120 200 l 25
 200 400 l 25
 200 20 l 25
 240 20 l 25
 240 100 l 25
 280 100 l 25
 280 20 l 25
 320 20 l 25
 320 100 l 25
 359.666687012 100 l 25
 359.666687012 20 l 1
 399.666992188 20 l 25
 399.666992188 -20 l 1
 359.666687012 -20 l 25
 359.666687012 -100 l 25
 320 -100 l 25
 320 -20 l 25
 280 -20 l 25
 280 -100 l 25
 240 -100 l 25
 240 -20 l 25
 200 -20 l 25xdc
EndSplineSet
Validated: 1
Ligature2: "C_H-1" C H
EndChar

StartChar: j
Encoding: 106 106 52
Width: 320
Flags: W
HStem: -200 21G<186.667 200> -20 40<0 40 80 160 200 240 280 320> 180 20G<186.667 200> 180 20G<186.667 200>
VStem: 160 40<-83 -20 20 83> 240 40<-100 -20 20 100>
LayerCount: 2
Fore
SplineSet
100 -150 m 1049xcc
160 -20 m 25
 80 -20 l 25
 109 -83 l 25
 136 -51 l 25
 160 -83 l 25
 160 -20 l 25
160 20 m 25
 160 83 l 25
 136 51 l 25
 109 83 l 25
 80 20 l 25
 160 20 l 25
200 -20 m 25
 200 -200 l 25
 140 -110 l 25
 100 -150 l 25
 40 -20 l 25
 0 -20 l 25
 0 20 l 25
 40 20 l 25
 100 150 l 25
 140 110 l 25
 200 200 l 25xec
 200 20 l 25
 240 20 l 25
 240 100 l 25
 280 100 l 25
 280 20 l 25
 320 20 l 25
 320 -20 l 25
 280 -20 l 25
 280 -100 l 25
 240 -100 l 25
 240 -20 l 25
 200 -20 l 25
EndSplineSet
Validated: 1
EndChar

StartChar: J
Encoding: 74 74 53
Width: 320
Flags: W
HStem: -200 21G<186.667 200> -20 40<0 40 200 240 280 320> 180 20G<186.667 200> 180 20G<186.667 200>
VStem: 240 40<-100 -20 20 100>
LayerCount: 2
Fore
SplineSet
100 -150 m 1049xc8
200 -20 m 25
 200 -200 l 25
 140 -110 l 25
 100 -150 l 25
 40 -20 l 25
 0 -20 l 25
 0 20 l 25
 40 20 l 25
 100 150 l 25
 140 110 l 25
 200 200 l 25xe8
 200 20 l 25
 240 20 l 25
 240 100 l 25
 280 100 l 25
 280 20 l 25
 320 20 l 25
 320 -20 l 25
 280 -20 l 25
 280 -100 l 25
 240 -100 l 25
 240 -20 l 25
 200 -20 l 25
EndSplineSet
Validated: 1
EndChar

StartChar: q
Encoding: 113 113 54
Width: 240
Flags: W
HStem: -20 40<0 40 80 160 200 240> 291 21G<117.667 142.246> 291 21G<117.667 142.246> 380 20G<77.8947 100> 380 20G<77.8947 100 193.333 200>
VStem: 160 40<-360 -20 20 360>
LayerCount: 2
Fore
SplineSet
160 -20 m 29x84
 80 -20 l 29
 109 -321 l 29
 135 -291 l 29
 160 -360 l 29
 160 -20 l 29x84
160 20 m 29
 160 360 l 29
 135 291 l 29xc4
 109 321 l 29
 80 20 l 29
 160 20 l 29
40 -20 m 29
 0 -20 l 29
 0 20 l 29
 40 20 l 29
 80 400 l 29x94
 120 360 l 29
 200 600 l 29
 200 20 l 29
 240 20 l 29
 240 -20 l 29
 200 -20 l 29
 200 -599 l 29
 120 -360 l 29
 80 -400 l 29
 40 -20 l 29
EndSplineSet
Validated: 1
EndChar

StartChar: Q
Encoding: 81 81 55
Width: 240
Flags: W
HStem: -20 40<0 40 200 240> 380 20G<77.8947 100> 380 20G<77.8947 100 193.333 200>
VStem: 40 160<-99.8 -20 20 99.8>
LayerCount: 2
Fore
SplineSet
40 -20 m 25xd0
 0 -20 l 25
 0 20 l 25
 40 20 l 25
 80 400 l 25
 120 360 l 25
 200 600 l 25
 200 20 l 25
 240 20 l 25
 240 -20 l 29
 200 -20 l 25
 200 -599 l 25
 120 -360 l 25
 80 -400 l 25
 40 -20 l 25xd0
EndSplineSet
Validated: 1
EndChar

StartChar: c
Encoding: 99 99 56
Width: 240
Flags: W
HStem: -20 40<0 40 80 160 200 240> 291 21G<117.667 142.246> 291 21G<117.667 142.246> 380 20G<77.8947 100> 380 20G<77.8947 100 193.333 200>
VStem: 160 40<-360 -20 20 360>
LayerCount: 2
Fore
SplineSet
160 -20 m 25x84
 80 -20 l 25
 109 -321 l 25
 135 -291 l 25
 160 -360 l 25
 160 -20 l 25x84
160 20 m 25
 160 360 l 25
 135 291 l 25xc4
 109 321 l 25
 80 20 l 25
 160 20 l 25
40 -20 m 25
 0 -20 l 25
 0 20 l 25
 40 20 l 25
 80 400 l 25x94
 120 360 l 25
 200 600 l 25
 200 20 l 25
 240 20 l 25
 240 -20 l 29
 200 -20 l 25
 200 -599 l 25
 120 -360 l 25
 80 -400 l 25
 40 -20 l 25
EndSplineSet
Validated: 1
EndChar

StartChar: C
Encoding: 67 67 57
Width: 240
Flags: W
HStem: -20 40<0 40 200 240> 380 20G<77.8947 100> 380 20G<77.8947 100 193.333 200>
VStem: 40 160<-99.8 -20 20 99.8>
LayerCount: 2
Fore
SplineSet
40 -20 m 25xd0
 0 -20 l 25
 0 20 l 25
 40 20 l 25
 80 400 l 25
 120 360 l 25
 200 600 l 25
 200 20 l 25
 240 20 l 25
 240 -20 l 29
 200 -20 l 25
 200 -599 l 25
 120 -360 l 25
 80 -400 l 25
 40 -20 l 25xd0
EndSplineSet
Validated: 1
EndChar

StartChar: bar
Encoding: 124 124 58
Width: 200
Flags: W
HStem: -600 40<40 80 120 160> -20 40<0 80 120 200> 560 40<40 80 120 160>
VStem: 40 120<-600 -560 560 600> 80 40<-560 -20 20 560>
CounterMasks: 1 e0
LayerCount: 2
Fore
SplineSet
0 20 m 25xe8
 80 20 l 25
 80 560 l 25xe8
 40 560 l 25
 40 600 l 25
 160 600 l 25
 160 560 l 25xf0
 120 560 l 25
 120 20 l 25
 200 20 l 25
 200 -20 l 25
 120 -20 l 25
 120 -560 l 25xe8
 160 -560 l 25
 160 -600 l 25
 40 -600 l 25
 40 -560 l 25xf0
 80 -560 l 25
 80 -20 l 25
 0 -20 l 25
 0 20 l 25xe8
EndSplineSet
Validated: 1
EndChar

StartChar: period
Encoding: 46 46 59
Width: 320
Flags: W
HStem: -20 40<0 240> 380 20G<240 280> 380 20G<240 280>
VStem: 240 40<-400 -20 20 400>
LayerCount: 2
Fore
SplineSet
0 -20 m 25xd0
 0 20 l 25
 240 20 l 25
 240 400 l 25
 280 400 l 25
 280 -400 l 29
 240 -400 l 29
 240 -20 l 25
 0 -20 l 25xd0
EndSplineSet
Validated: 1
EndChar

StartChar: hyphen
Encoding: 45 45 60
Width: 280
Flags: W
HStem: -200 21G<200 240> -20 40<0 200> 180 20G<200 240> 180 20G<200 240>
VStem: 200 40<-200 -20 20 200>
LayerCount: 2
Fore
SplineSet
0 -20 m 25xe8
 0 20 l 25
 200 20 l 25
 200 200 l 25
 240 200 l 25
 240 -200 l 29
 200 -200 l 29
 200 -20 l 25
 0 -20 l 25xe8
EndSplineSet
Validated: 1
EndChar

StartChar: comma
Encoding: 44 44 61
Width: 240
Flags: W
HStem: -20 40<0 240>
VStem: 0 240<-20 20>
LayerCount: 2
Fore
SplineSet
240 -20 m 25
 0 -20 l 25
 0 20 l 25
 240 20 l 25
 240 -20 l 25
EndSplineSet
Validated: 1
EndChar

StartChar: question
Encoding: 63 63 62
Width: 440
Flags: W
HStem: -200 21G<40 93.3333> -20 40<0 40 80 160 200 240 280 360 400 440> 200 180G<40 93.3333 360 400> 200 180G<40 93.3333 360 400>
VStem: 40 40<-140 -20 20 140> 240 40<-100 -20 20 100> 360 40<-400 -20 20 400>
LayerCount: 2
Fore
SplineSet
160 -20 m 25xce
 80 -20 l 25
 80 -140 l 25
 160 -20 l 25xce
80 20 m 25
 160 20 l 25
 80 140 l 25
 80 20 l 25
280 20 m 13
 360 20 l 25
 360 400 l 25
 400 400 l 25
 400 20 l 25
 440 20 l 25
 440 -20 l 25
 400 -20 l 25
 400 -400 l 25
 360 -400 l 25
 360 -20 l 25
 280 -20 l 25
 280 -100 l 25
 240 -100 l 25
 240 -20 l 25
 200 -20 l 25
 80 -200 l 25
 40 -200 l 25
 40 -20 l 25
 0 -20 l 25
 0 20 l 25
 40 20 l 25
 40 200 l 25
 80 200 l 25xee
 200 20 l 25
 240 20 l 25
 240 100 l 25
 280 100 l 17
 280 20 l 13
EndSplineSet
Validated: 1
EndChar

StartChar: zero
Encoding: 48 48 63
Width: 120
Flags: W
HStem: -30 60<30 90>
VStem: 30 60<-30 30>
LayerCount: 2
Fore
SplineSet
30 -30 m 29
 30 30 l 29
 90 30 l 25
 90 -30 l 25
 30 -30 l 29
EndSplineSet
Validated: 1
EndChar

StartChar: two
Encoding: 50 50 64
Width: 200
Flags: W
HStem: -160 21G<171.429 200> 140 20G<171.429 200>
VStem: 0 200
LayerCount: 2
Fore
SplineSet
0 20 m 25
 200 160 l 25
 200 121 l 25
 30 0 l 25
 200 -120 l 25
 200 -160 l 25
 0 -20 l 25
 0 20 l 25
EndSplineSet
Validated: 1
EndChar

StartChar: three
Encoding: 51 51 65
Width: 200
Flags: W
HStem: -160 21G<171.429 200> -20 40<60 200> 140 20G<171.429 200>
VStem: 0 200<-20 20>
LayerCount: 2
Fore
SplineSet
200 -20 m 25
 60 -20 l 25
 200 -120 l 25
 200 -160 l 25
 0 -20 l 25
 0 20 l 25
 200 160 l 25
 200 120.5 l 25
 60 20 l 25
 200 20 l 25
 200 -20 l 25
EndSplineSet
Validated: 1
EndChar

StartChar: four
Encoding: 52 52 66
Width: 320
Flags: W
HStem: -160 21G<0 24.6154 295.385 320> 140 20G<0 24.6154 295.385 320>
VStem: 0 320
LayerCount: 2
Fore
SplineSet
130 0 m 25
 0 120.5 l 25
 0 160 l 25
 160 30 l 1
 320 160 l 25
 320 120.5 l 1
 190 0 l 25
 320 -120 l 1
 320 -160 l 25
 160 -30 l 1
 0 -160 l 25
 0 -120 l 25
 130 0 l 25
EndSplineSet
Validated: 1
EndChar

StartChar: five
Encoding: 53 53 67
Width: 320
Flags: W
HStem: -160 21G<80 120 291.429 320> -20 40<0 80> 140 20G<80 120 291.429 320>
VStem: 80 40<-160 -20 20 160>
LayerCount: 2
Fore
SplineSet
320 -160 m 25
 120 -20 l 25
 120 -160 l 25
 80 -160 l 25
 80 -20 l 25
 0 -20 l 25
 0 20 l 25
 80 20 l 25
 80 160 l 25
 120 160 l 25
 120 20 l 25
 320 160 l 25
 320 121 l 25
 150 0 l 25
 320 -120 l 25
 320 -160 l 25
EndSplineSet
Validated: 1
EndChar

StartChar: six
Encoding: 54 54 68
Width: 439
Flags: W
HStem: -160 21G<0 28.5714 200 240 410.786 439.25> 140 20G<0 28.5714 200 240 411 439.247>
VStem: 200 40<-160 -20 20 160>
LayerCount: 2
Fore
SplineSet
240 -20 m 25
 240 -160 l 25
 200 -160 l 25
 200 -20 l 25
 0 -160 l 25
 0 -120 l 25
 170 0 l 25
 0 121 l 25
 0 160 l 25
 200 20 l 25
 200 160 l 25
 240 160 l 25
 240 20 l 25
 439.5 160 l 25
 439 120.5 l 25
 270 0 l 25
 439.25 -120 l 25
 439.25 -160 l 25
 240 -20 l 25
EndSplineSet
Validated: 1
EndChar

StartChar: seven
Encoding: 55 55 69
Width: 200
Flags: W
HStem: -160 21G<0 28.5714> 140 20G<0 28.5714>
VStem: 0 200
LayerCount: 2
Fore
SplineSet
0 60 m 25
 80 0 l 25
 0 -59 l 25
 0 -20 l 25
 30 0 l 25
 0 20 l 25
 0 60 l 25
200 20 m 25
 200 -20 l 25
 0 -160 l 25
 0 -120 l 25
 170 0 l 25
 0 121 l 25
 0 160 l 25
 200 20 l 25
EndSplineSet
Validated: 1
EndChar

StartChar: nine
Encoding: 57 57 70
Width: 200
Flags: W
HStem: -160 21G<0 28.5714> 140 20G<0 28.5714>
VStem: 0 200
LayerCount: 2
Fore
SplineSet
200 20 m 25
 200 -20 l 25
 0 -160 l 25
 0 -120 l 25
 170 0 l 25
 0 121 l 25
 0 160 l 25
 200 20 l 25
EndSplineSet
Validated: 1
EndChar

StartChar: eight
Encoding: 56 56 71
Width: 200
Flags: W
HStem: -160 21G<0 28.5714> -20 40<0 142> 140 20G<0 28.5714>
VStem: 0 200<-160 -120>
LayerCount: 2
Fore
SplineSet
0 -120 m 25
 142 -20 l 25
 0 -20 l 25
 0 20 l 25
 142 20 l 25
 0 121 l 25
 0 160 l 25
 200 20 l 25
 200 -20 l 25
 0 -160 l 25
 0 -120 l 25
EndSplineSet
Validated: 1
EndChar

StartChar: one
Encoding: 49 49 72
Width: 280
Flags: W
HStem: -20 40<40 240>
VStem: 40 200<-20 20>
LayerCount: 2
Fore
SplineSet
40 20 m 25
 240 20 l 25
 240 -20 l 29
 40 -20 l 25
 40 20 l 25
EndSplineSet
Validated: 1
EndChar

StartChar: x
Encoding: 120 120 74
Width: 480
Flags: W
HStem: -20 40<0 40 80 160 200 280 320 400 440 480> 291 21G<117.667 142.246> 291 21G<117.667 142.246> 380 20G<77.8947 100> 580 20G<77.8947 100 193.333 200 280 324.138>
VStem: 160 40<-360 -20 20 360> 280 40<-600 -559.4 -400 -20 20 400 559.4 600>
LayerCount: 2
Fore
SplineSet
400 -20 m 25x9e
 320 -20 l 25
 320 -400 l 25
 400 -20 l 25x9e
320 20 m 25
 400 20 l 25
 320 400 l 25
 320 20 l 25
280 20 m 25
 280 600 l 25
 320 600 l 25
 440 20 l 25
 480 20 l 25
 480 -20 l 25
 440 -20 l 25
 320 -600 l 25
 280 -600 l 17
 280 -56 l 4
 280 -20 l 9
 200 -20 l 25
 200 -599 l 25
 120 -360 l 25
 80 -400 l 25
 40 -20 l 25
 0 -20 l 25
 0 20 l 25
 40 20 l 25
 80 400 l 25
 120 360 l 25
 200 600 l 25
 200 20 l 25
 280 20 l 25
160 -20 m 25
 80 -20 l 25
 109 -321 l 25
 135 -291 l 25
 160 -360 l 25
 160 -20 l 25
160 20 m 25
 160 360 l 25
 135 291 l 25xde
 109 321 l 25
 80 20 l 25
 160 20 l 25
EndSplineSet
Validated: 1
EndChar

StartChar: X
Encoding: 88 88 75
Width: 480
Flags: W
HStem: -20 40<0 40 200 280 440 480> 380 20G<77.8947 100> 580 20G<77.8947 100 193.333 200 280 324.138>
VStem: 40 160<-99.8 -20 20 99.8> 280 40<-600 -559.4 559.4 600>
LayerCount: 2
Fore
SplineSet
280 20 m 25
 280 600 l 25
 320 600 l 25
 440 20 l 25
 480 20 l 25
 480 -20 l 25
 440 -20 l 25
 320 -600 l 25
 280 -600 l 17
 280 -56 l 0
 280 -20 l 9
 200 -20 l 25
 200 -599 l 25
 120 -360 l 25
 80 -400 l 25
 40 -20 l 25
 0 -20 l 25
 0 20 l 25
 40 20 l 25
 80 400 l 25
 120 360 l 25
 200 600 l 25
 200 20 l 25
 280 20 l 25
EndSplineSet
Validated: 1
EndChar

StartChar: semicolon
Encoding: 59 59 76
Width: 280
Flags: W
HStem: -160 21G<200 240> -60 40<40 200> 20 40<40 200> 140 20G<200 240>
VStem: 200 40<-160 -60 -20 20 60 160>
LayerCount: 2
Fore
SplineSet
40 20 m 29
 40 60 l 29
 200 60 l 25
 200 160 l 25
 240 160 l 25
 240 -160 l 25
 200 -160 l 25
 200 -60 l 25
 40 -60 l 25
 40 -20 l 25
 200 -20 l 25
 200 20 l 25
 40 20 l 29
EndSplineSet
Validated: 1
EndChar

StartChar: colon
Encoding: 58 58 77
Width: 280
Flags: W
HStem: -60 40<40 240> 20 40<40 240>
VStem: 40 200<-60 -20 20 60>
LayerCount: 2
Fore
SplineSet
40 -60 m 25
 40 -20 l 25
 240 -20 l 25
 240 -60 l 25
 40 -60 l 25
40 60 m 29
 240 60 l 25
 240 20 l 25
 40 20 l 25
 40 60 l 29
EndSplineSet
Validated: 1
EndChar

StartChar: exclam
Encoding: 33 33 78
Width: 280
Flags: W
HStem: 580 20G<120 160>
VStem: 40 40<-100 100> 120 40<-600 600> 200 40<-100 100>
CounterMasks: 1 70
LayerCount: 2
Fore
SplineSet
40 -100 m 25
 40 100 l 25
 80 100 l 25
 80 -100 l 25
 40 -100 l 25
200 -100 m 25
 200 100 l 25
 240 100 l 25
 240 -100 l 25
 200 -100 l 25
120 -600 m 29
 120 600 l 25
 160 600 l 25
 160 -600 l 29
 120 -600 l 29
EndSplineSet
Validated: 1
EndChar

StartChar: slash
Encoding: 47 47 79
Width: 280
Flags: W
HStem: 540 20G<197.143 240>
VStem: 40 200
LayerCount: 2
Fore
SplineSet
40 -560 m 29
 200 560 l 25
 240 560 l 25
 80 -560 l 29
 40 -560 l 29
EndSplineSet
Validated: 1
EndChar

StartChar: underscore
Encoding: 95 95 80
Width: 280
Flags: W
HStem: -400 40<0 280> 360 40<0 280>
VStem: 0 280<-400 -360 360 400>
LayerCount: 2
Fore
SplineSet
0 -360 m 25
 280 -360 l 25
 280 -400 l 29
 0 -400 l 25
 0 -360 l 25
0 360 m 25
 0 400 l 25
 280 400 l 25
 280 360 l 25
 0 360 l 25
EndSplineSet
Validated: 1
EndChar

StartChar: ampersand
Encoding: 38 38 81
Width: 600
Flags: W
HStem: -200 21G<160 213.333> -20 40<0 40 80 160 200 280 320 400 440 520 560 600> 380 20G<40 80 160 213.333 513.684 560> 380 20G<40 80 160 213.333 513.684 560>
VStem: 40 40<-400 -20 20 400> 160 40<-140 -20 20 140> 520 40<-400 -373.4 -270 -20 20 270 373.4 400>
LayerCount: 2
Fore
SplineSet
520 -20 m 25xce
 440 -20 l 25
 520 -270 l 25
 520 -20 l 25xce
440 20 m 25
 520 20 l 25
 520 270 l 25
 440 20 l 25
280 -20 m 17
 257 -20 l 4
 200 -20 l 9
 200 -140 l 25
 280 -20 l 17
200 20 m 25
 280 20 l 25
 200 140 l 25
 200 20 l 25
80 -20 m 25
 80 -400 l 25
 40 -400 l 25
 40 -20 l 25
 0 -20 l 25
 0 20 l 25
 40 20 l 25
 40 400 l 25
 80 400 l 25
 80 20 l 25
 160 20 l 25
 160 200 l 25
 200 200 l 25
 320 20 l 25
 400 20 l 25
 520 400 l 25
 560 400 l 25xee
 560 20 l 25
 600 20 l 25
 600 -20 l 25
 560 -20 l 25
 560 -400 l 25
 520 -400 l 25
 400 -20 l 25
 320 -20 l 25
 200 -200 l 25
 160 -200 l 25
 160 -20 l 25
 80 -20 l 25
EndSplineSet
Validated: 1
EndChar

StartChar: bracketleft
Encoding: 91 91 82
Width: 200
Flags: W
HStem: -240 40<80 150> 200 40<80 150>
VStem: 40 110<-240 -200 200 240> 40 40<-200 200>
LayerCount: 2
Fore
SplineSet
40 -240 m 25xe0
 40 240 l 25
 150 240 l 25
 150 200 l 25xe0
 80 200 l 25
 80 -200 l 25xd0
 150 -200 l 29
 150 -240 l 29
 40 -240 l 25xe0
EndSplineSet
Validated: 1
EndChar

StartChar: bracketright
Encoding: 93 93 83
Width: 200
Flags: W
HStem: -240 40<50 120> 200 40<50 120>
VStem: 50 110<-240 -200 200 240> 120 40<-200 200>
LayerCount: 2
Fore
SplineSet
160 -240 m 25xe0
 50 -240 l 29
 50 -200 l 29xe0
 120 -200 l 25
 120 200 l 25xd0
 50 200 l 25
 50 240 l 25
 160 240 l 25
 160 -240 l 25xe0
EndSplineSet
Validated: 1
EndChar

StartChar: backslash
Encoding: 92 92 84
Width: 280
Flags: W
HStem: 540 20G<40 82.8571>
VStem: 40 200
LayerCount: 2
Fore
SplineSet
200 -560 m 29
 40 560 l 25
 80 560 l 25
 240 -560 l 29
 200 -560 l 29
EndSplineSet
Validated: 1
EndChar

StartChar: parenleft
Encoding: 40 40 85
Width: 200
Flags: W
HStem: 580 20G<148 160>
VStem: 40 40<-360 360>
LayerCount: 2
Fore
SplineSet
40 -400 m 25
 40 400 l 25
 160 600 l 25
 160 510 l 25
 80 360 l 25
 80 -360 l 25
 160 -510 l 29
 160 -600 l 25
 40 -400 l 25
EndSplineSet
Validated: 1
EndChar

StartChar: parenright
Encoding: 41 41 86
Width: 200
Flags: W
HStem: 580 20G<40 52>
VStem: 120 40<-360 360>
LayerCount: 2
Fore
SplineSet
160 -400 m 25
 40 -600 l 25
 40 -510 l 29
 120 -360 l 25
 120 360 l 25
 40 510 l 25
 40 600 l 25
 160 400 l 25
 160 -400 l 25
EndSplineSet
Validated: 1
EndChar

StartChar: dollar
Encoding: 36 36 87
Width: 320
Flags: W
HStem: -120 240.5<86.0295 233.97>
VStem: 40 240<-73.9705 74.008>
LayerCount: 2
Fore
SplineSet
40 0 m 24
 40 66 94 120 160 120.5 c 24
 226 120 280 66 280 0 c 24
 280 -66 226 -120 160 -120 c 24
 94 -120 40 -66 40 0 c 24
EndSplineSet
Validated: 1
EndChar

StartChar: braceleft
Encoding: 123 123 88
Width: 280
Flags: W
HStem: 380 20G<228 240> 380 20G<228 240>
VStem: 120 40<-160 -60 60 160>
LayerCount: 2
Fore
SplineSet
120 -60 m 1xa0
 40 0 l 1
 120 60 l 1
 120 200 l 9
 240 400 l 25
 240 300 l 25
 160 160 l 17
 160 50 l 1
 90 0 l 1
 160 -50 l 1
 160 -160 l 13
 240 -300 l 29
 240 -400 l 29
 120 -200 l 21
 120 -60 l 1xa0
EndSplineSet
Validated: 1
EndChar

StartChar: braceright
Encoding: 125 125 89
Width: 280
Flags: W
HStem: 380 20G<40 52> 380 20G<40 52>
VStem: 120 40<-160 -60 60 160>
LayerCount: 2
Fore
SplineSet
160 -60 m 1xa0
 160 -200 l 13
 40 -400 l 29
 40 -300 l 29
 120 -160 l 21
 120 -50 l 1
 190 0 l 1
 120 50 l 1
 120 160 l 9
 40 300 l 25
 40 400 l 25
 160 200 l 17
 160 60 l 1
 240 0 l 1
 160 -60 l 1xa0
EndSplineSet
Validated: 1
EndChar

StartChar: asciitilde
Encoding: 126 126 90
Width: 280
Flags: W
HStem: -40 80
VStem: 40 200
LayerCount: 2
Fore
SplineSet
40 20 m 17
 110 40 l 1
 170 0 l 1
 240 20 l 9
 240 -20 l 17
 170 -40 l 1
 110 0 l 1
 40 -20 l 9
 40 20 l 17
EndSplineSet
Validated: 1
EndChar

StartChar: quotesingle
Encoding: 39 39 91
Width: 120
Flags: W
HStem: 400 21G<40 80> 400 21G<40 80> 540 20G<40 80>
VStem: 40 40<-560 -400 400 560>
LayerCount: 2
Fore
SplineSet
40 -400 m 25x30
 80 -400 l 25
 80 -560 l 25
 40 -560 l 25
 40 -400 l 25x30
40 400 m 25xb0
 40 560 l 25
 80 560 l 25
 80 400 l 25
 40 400 l 25xb0
EndSplineSet
Validated: 1
EndChar

StartChar: quotedbl
Encoding: 34 34 92
Width: 200
Flags: W
HStem: 360 21G<40 80 120 160> 360 21G<40 80 120 160> 580 20G<40 80 120 160>
VStem: 40 40<-600 -360 360 600> 120 40<-600 -360 360 600>
LayerCount: 2
Fore
SplineSet
120 -360 m 25x38
 160 -360 l 25
 160 -600 l 29
 120 -600 l 29
 120 -360 l 25x38
120 360 m 25xb8
 120 600 l 25
 160 600 l 25
 160 360 l 25
 120 360 l 25xb8
40 -360 m 25
 80 -360 l 25
 80 -600 l 29
 40 -600 l 29
 40 -360 l 25
40 360 m 25
 40 600 l 25
 80 600 l 25
 80 360 l 25
 40 360 l 25
EndSplineSet
Validated: 1
EndChar

StartChar: grave
Encoding: 96 96 93
Width: 200
Flags: W
HStem: 400 21G<110 160> 400 21G<110 160> 540 20G<40 90>
VStem: 40 120
LayerCount: 2
Fore
SplineSet
120 -400 m 29x30
 160 -400 l 29
 80 -560 l 25
 40 -560 l 25
 120 -400 l 29x30
120 400 m 25xb0
 40 560 l 25
 80 560 l 25
 160 400 l 25
 120 400 l 25xb0
EndSplineSet
Validated: 1
EndChar

StartChar: less
Encoding: 60 60 94
Width: 200
Flags: W
HStem: 580 20G<156 160>
VStem: 40 120
LayerCount: 2
Fore
SplineSet
160 -430 m 9
 160 -600 l 25
 40 0 l 25
 160 600 l 25
 160 430 l 25
 80 0 l 17
 160 -430 l 9
EndSplineSet
Validated: 1
EndChar

StartChar: greater
Encoding: 62 62 95
Width: 200
Flags: W
HStem: 580 20G<40 44>
VStem: 40 120
LayerCount: 2
Fore
SplineSet
40 -430 m 17
 120 0 l 9
 40 430 l 25
 40 600 l 25
 160 0 l 25
 40 -600 l 25
 40 -430 l 17
EndSplineSet
Validated: 1
EndChar

StartChar: numbersign
Encoding: 35 35 96
Width: 280
Flags: W
HStem: -100 40<40 80 120 160 200 240> -20 40<0 80 120 160 200 280> 60 40.5<40 80 120 160 200 240>
VStem: 80 40<-140 -100 -60 -20 20 60 100.5 140> 160 40<-140 -100 -60 -20 20 60 100.5 140>
LayerCount: 2
Fore
SplineSet
160 -60 m 25
 160 -20 l 25
 120 -20 l 25
 120 -60 l 25
 160 -60 l 25
160 20 m 25
 160 60 l 25
 120 60 l 25
 120 20 l 25
 160 20 l 25
0 -20 m 25
 0 20 l 25
 80 20 l 25
 80 60 l 25
 40 60 l 25
 40 100.5 l 25
 80 100.5 l 25
 80 140 l 25
 120 140 l 25
 120 100.5 l 25
 160 100.5 l 25
 160 140 l 25
 200 140 l 25
 200 100.5 l 25
 240 100.5 l 25
 240 60 l 25
 200 60 l 25
 200 20 l 25
 280 20 l 25
 280 -20 l 25
 200 -20 l 25
 200 -60 l 25
 240 -60 l 25
 240 -100 l 25
 200 -100 l 25
 200 -140 l 25
 160 -140 l 25
 160 -100 l 25
 120 -100 l 25
 120 -140 l 25
 80 -140 l 25
 80 -100 l 25
 40 -100 l 25
 40 -60 l 25
 80 -60 l 25
 80 -20 l 25
 0 -20 l 25
EndSplineSet
Validated: 524289
EndChar

StartChar: yen
Encoding: 165 165 97
Width: 320
Flags: W
HStem: -120 240.5<86.0295 233.97>
VStem: 40 240<-73.9705 74.008>
LayerCount: 2
Fore
SplineSet
40 0 m 24
 40 66 94 120 160 120.5 c 24
 226 120 280 66 280 0 c 24
 280 -66 226 -120 160 -120 c 24
 94 -120 40 -66 40 0 c 24
EndSplineSet
Validated: 1
EndChar

StartChar: sterling
Encoding: 163 163 98
Width: 320
Flags: W
HStem: -120 240.5<86.0295 233.97>
VStem: 40 240<-73.9705 74.008>
LayerCount: 2
Fore
SplineSet
40 0 m 24
 40 66 94 120 160 120.5 c 24
 226 120 280 66 280 0 c 24
 280 -66 226 -120 160 -120 c 24
 94 -120 40 -66 40 0 c 24
EndSplineSet
Validated: 1
EndChar

StartChar: cent
Encoding: 162 162 99
Width: 320
Flags: W
HStem: -70 140.504<107.966 212.034>
VStem: 90 140<-52.0343 52.1589>
LayerCount: 2
Fore
SplineSet
90 0 m 0
 90 35.7871138027 121.621661682 70.5036926117 159.326477587 70.5036926117 c 0
 159.550771587 70.5036926117 159.77528085 70.502464102 160 70.5 c 4
 195.999493715 70.1052564962 230 36 230 0 c 0
 230 -36 196 -70 160 -70 c 0
 124 -70 90 -36 90 0 c 0
EndSplineSet
Validated: 1
EndChar

StartChar: asciicircum
Encoding: 94 94 100
Width: 320
Flags: W
HStem: -200 21G<85 115> 180 20G<84.9057 115.094> 180 20G<84.9057 115.094 190 210> 400 21G<120 170 230 280> 400 21G<120 170 230 280>
VStem: 40 240
LayerCount: 2
Fore
SplineSet
40 -120 m 1x84
 80 -120 l 1
 100 -150.5 l 1
 120 -120 l 1
 160 -120 l 1
 100 -200 l 1
 40 -120 l 1x84
40 120.5 m 25
 100 200 l 25xc4
 160 120.5 l 25
 120 120.5 l 17
 100 150.5 l 1
 80 120.5 l 9
 40 120.5 l 25
120 -400 m 25
 160 -400 l 25
 200 -480 l 25
 240 -400 l 25
 280 -400 l 25
 200 -560 l 25
 120 -400 l 25
120 400 m 25x94
 200 560 l 25
 280 400 l 25
 240 400 l 25
 200 480 l 25
 160 400 l 25
 120 400 l 25x94
EndSplineSet
Validated: 1
EndChar

StartChar: equal
Encoding: 61 61 101
Width: 280
Flags: W
HStem: -60 40<40 240> 20 40<40 240>
VStem: 40 200<-60 -20 20 60>
LayerCount: 2
Fore
SplineSet
40 -60 m 25
 40 -20 l 25
 240 -20 l 25
 240 -60 l 25
 40 -60 l 25
40 60 m 29
 240 60 l 25
 240 20 l 25
 40 20 l 25
 40 60 l 29
EndSplineSet
Validated: 1
EndChar

StartChar: at
Encoding: 64 64 102
Width: 360
Flags: W
HStem: -20 40<0 40 80 160 200 280 320 360> 380 20G<40 80> 400 180G<40 80 275.862 320>
VStem: 40 40<-400 -20 20 400> 280 40<-600 -559.4 -400 -20 20 400 559.4 600>
LayerCount: 2
Fore
SplineSet
280 -20 m 25x98
 200 -20 l 25
 280 -400 l 25
 280 -20 l 25x98
280 20 m 13
 280 400 l 25xb8
 200 20 l 17
 280 20 l 13
160 20 m 25
 280 600 l 25
 320 600 l 25
 320 20 l 25
 360 20 l 25
 360 -20 l 25
 320 -20 l 25
 320 -600 l 25
 280 -600 l 25
 160 -20 l 25
 80 -20 l 25
 80 -400 l 25
 40 -400 l 25
 40 -20 l 25
 0 -20 l 25
 0 20 l 25
 40 20 l 25
 40 400 l 25
 80 400 l 25xd8
 80 20 l 25
 160 20 l 25
EndSplineSet
Validated: 1
EndChar

StartChar: plus
Encoding: 43 43 103
Width: 280
Flags: W
HStem: -20 40<40 120 160 240>
VStem: 120 40<-100 -20 20 100>
LayerCount: 2
Fore
SplineSet
40 -20 m 25
 40 20 l 25
 120 20 l 25
 120 100 l 25
 160 100 l 25
 160 20 l 25
 240 20 l 25
 240 -20 l 25
 160 -20 l 25
 160 -100 l 25
 120 -100 l 25
 120 -20 l 25
 40 -20 l 25
EndSplineSet
Validated: 1
EndChar

StartChar: asterisk
Encoding: 42 42 104
Width: 200
Flags: W
HStem: -560 40<40 80 120 160> -20 40<40 80 120 160> 480 21G<80 120> 520 40<40 80 120 160> 580 20G<80 120>
VStem: 40 120<-560 -520 -20 20 520 560> 80 40<-600 -560 -520 -480 -60 -20 20 60 480 520 560 600>
LayerCount: 2
Fore
SplineSet
40 -560 m 25xfc
 40 -520 l 25xfc
 80 -520 l 25
 80 -480 l 25
 120 -480 l 25
 120 -520 l 25xfa
 160 -520 l 25
 160 -560 l 25xfc
 120 -560 l 25
 120 -600 l 25
 80 -600 l 25
 80 -560 l 25xfa
 40 -560 l 25xfc
40 520 m 25
 40 560 l 25xfc
 80 560 l 25
 80 600 l 25
 120 600 l 25
 120 560 l 25xfa
 160 560 l 25
 160 520 l 25xfc
 120 520 l 25
 120 480 l 25
 80 480 l 25
 80 520 l 25xfa
 40 520 l 25
40 -20 m 25
 40 20 l 25xfc
 80 20 l 25
 80 60 l 25
 120 60 l 25
 120 20 l 25xfa
 160 20 l 25
 160 -20 l 25xfc
 120 -20 l 25
 120 -60 l 25
 80 -60 l 25
 80 -20 l 25xfa
 40 -20 l 25
EndSplineSet
Validated: 1
EndChar

StartChar: guillemotleft
Encoding: 171 171 105
Width: 200
Flags: W
HStem: 380 20G<154 160> 380 20G<154 160>
VStem: 40 120
LayerCount: 2
Fore
SplineSet
100 0 m 29x20
 160 190.5 l 29
 160 100 l 29
 130 0 l 29
 160 -100 l 29
 160 -190 l 29
 100 0 l 29x20
160 -260 m 13
 160 -400 l 29
 40 0 l 29
 160 400 l 29xa0
 160 260 l 29
 80 0 l 21
 160 -260 l 13
EndSplineSet
Validated: 1
EndChar

StartChar: guillemotright
Encoding: 187 187 106
Width: 200
Flags: W
HStem: 380 20G<40 46> 380 20G<40 46>
VStem: 40 120
LayerCount: 2
Fore
SplineSet
100 0 m 25x20
 40 -190 l 25
 40 -100 l 25
 70 0 l 25
 40 100 l 25
 40 190.5 l 25
 100 0 l 25x20
40 -260 m 17
 120 0 l 9
 40 260 l 25
 40 400 l 25xa0
 160 0 l 25
 40 -400 l 25
 40 -260 l 17
EndSplineSet
Validated: 1
EndChar

StartChar: copyright
Encoding: 169 169 107
Width: 320
Flags: W
HStem: -600 40<40 280> 340 20G<117.647 140> 340 20G<117.647 140 233.043 240> 560 40<40 280>
VStem: 0 40<-560 560> 80 160<-91.4 91.4> 280 40<-560 560>
CounterMasks: 1 0e
LayerCount: 2
Fore
SplineSet
280 560 m 29x9e
 40 560 l 25
 40 -560 l 25
 280 -560 l 25
 280 560 l 29x9e
0 600 m 25
 320 600 l 25
 320 -600 l 25
 0 -600 l 25
 0 600 l 25
240 -549 m 25
 160 -320 l 25
 120 -360 l 25
 80 -20 l 25
 80 20 l 25
 120 360 l 25xde
 160 320 l 25
 240 550 l 25
 240 -549 l 25
EndSplineSet
Validated: 1
EndChar

StartChar: registered
Encoding: 174 174 108
Width: 320
Flags: W
HStem: -280 40<40 280> -200 21G<186.667 240> 180 20G<186.667 240> 180 20G<186.667 240> 240 40<40 280>
VStem: 0 40<-240 240> 280 40<-240 240>
LayerCount: 2
Fore
SplineSet
280 240 m 29xce
 40 240 l 25
 40 -240 l 25
 280 -240 l 25
 280 240 l 29xce
0 280 m 25
 320 280 l 25
 320 -280 l 25
 0 -280 l 25
 0 280 l 25
240 -200 m 25
 200 -200 l 25
 80 -20 l 25
 80 20 l 25
 200 200 l 25
 240 200 l 25xee
 240 -200 l 25
EndSplineSet
Validated: 1
EndChar

StartChar: divide
Encoding: 247 247 109
Width: 280
Flags: W
HStem: 580 20G<197.333 240>
VStem: 40 200
LayerCount: 2
Fore
SplineSet
40 -560 m 29
 200 560 l 25
 240 560 l 25
 80 -560 l 29
 40 -560 l 29
EndSplineSet
Validated: 1
EndChar
